<?xml version="1.0" encoding="utf-8"?>
<!-- Generator: Adobe Illustrator 16.0.3, SVG Export Plug-In . SVG Version: 6.00 Build 0)  -->
<!DOCTYPE svg PUBLIC "-//W3C//DTD SVG 1.1//EN" "http://www.w3.org/Graphics/SVG/1.1/DTD/svg11.dtd">
<svg version="1.1" id="Layer_1" xmlns="http://www.w3.org/2000/svg" xmlns:xlink="http://www.w3.org/1999/xlink" x="0px" y="0px"
	 width="273.363px" height="80.938px" viewBox="0 0 273.363 80.938" enable-background="new 0 0 273.363 80.938"
	 xml:space="preserve">
<path d="M71.313,29.814c-1.242-2.271-3.389-4.143-6.435-5.618c-1.503-0.725-3.396-1.269-5.668-1.636
	c-2.227-0.359-4.819-0.549-7.779-0.567v-0.009H21.719v-5.021c0-3.107,0.991-5.979,5.993-5.979h8.619V0L24.576,0.006
	c-17.162,0-16.801,12.629-16.801,18.417c0,0.616-0.023,3.562-0.023,3.562H0v10.985h7.752v41.505h13.967V32.969H53.91
	c4.025,0,5.275,2.087,5.275,4.657v2.511l-15.135,3.697c0,0-7.038,1.802-9.271,2.883c-2.564,1.242-4.563,3.031-5.986,5.367
	c-0.589,0.966-1.026,1.997-1.369,3.072c-0.492,1.528-0.769,3.154-0.769,4.905c0,4.507,1.564,8.235,4.696,11.183
	c1.512,1.424,3.296,2.494,5.341,3.23h14.716c0.499-0.171,1.002-0.338,1.488-0.547c2.209-0.94,4.299-2.286,6.289-3.993v4.54h13.967
	c0,0,0.013-33.451,0-34.067C73.03,35.373,72.419,31.835,71.313,29.814z M59.186,57.375c-0.077,0.537-0.166,0.993-0.275,1.344
	c-0.529,1.824-1.64,3.365-3.327,4.623c-2.288,1.656-4.688,2.484-7.208,2.484c-2.253,0-4.108-0.712-5.567-2.138
	c-1.456-1.423-2.186-3.112-2.186-5.068c0-1.989,0.91-3.63,2.733-4.921c1.191-0.795,15.83-4.484,15.83-4.484V57.375z M99.246,21.993
	c-2.957,0.018-5.55,0.208-7.777,0.567c-1.037,0.167-1.983,0.376-2.859,0.618c-1.047,0.287-1.99,0.624-2.807,1.019
	c-3.051,1.475-5.231,3.407-6.873,6.101c-1.54,2.526-1.401,8.182-1.401,10.11c0,0.427-0.006,15.71-0.004,26.063
	c-0.002,4.822-0.002,8.005-0.002,8.005h13.966l0.007-36.849c0-2.569,1.248-4.657,5.275-4.657h6.62V21.984h-4.145V21.993z
	 M195.893,15.826c-8.936,0-16.591,3.182-22.957,9.554c-6.371,6.371-9.555,14.021-9.555,22.956c0,8.994,3.184,16.676,9.555,23.046
	c6.366,6.368,14.021,9.556,22.957,9.556s16.587-3.188,22.957-9.556c6.371-6.37,9.558-14.052,9.558-23.046
	c0-8.936-3.187-16.585-9.558-22.956C212.479,19.007,204.828,15.826,195.893,15.826z M215.809,68.203
	c-5.488,5.523-12.129,8.281-19.916,8.281c-7.726,0-14.348-2.758-19.871-8.281c-5.519-5.522-8.278-12.145-8.278-19.871
	c0-7.723,2.76-14.329,8.278-19.82c5.523-5.49,12.146-8.234,19.871-8.234c7.787,0,14.428,2.744,19.916,8.234
	c5.489,5.491,8.238,12.097,8.238,19.82C224.047,56.059,221.298,62.681,215.809,68.203z M149.409,21.984l-11.577,17.045
	l-11.577-17.045h-13.971v52.491h13.967l0.004-28.811l11.577,16.866l11.583-16.858v28.803h13.966V48.336V21.984H149.409z
	 M254.449,45.344l15.133-23.36h-13.963l-13.245,20.405V21.984h-13.967v26.352v26.139h13.967V64.057l5.483-7.502l11.473,17.92h14.033
	L254.449,45.344z"/>
</svg>
